<?xml version="1.0" encoding="utf-8"?>
<!-- Generator: Adobe Illustrator 19.1.1, SVG Export Plug-In . SVG Version: 6.00 Build 0)  -->
<svg version="1.1" baseProfile="basic" id="Слой_1"
	 xmlns="http://www.w3.org/2000/svg" xmlns:xlink="http://www.w3.org/1999/xlink" x="0px" y="0px" width="200px" height="70px"
	 viewBox="0 0 200 70" xml:space="preserve">
<g>
	<path fill="#515151" d="M192,4H85.2l-7.3,62H192c4.4,0,8-3.5,8-7.9V12C200,7.6,196.4,4,192,4z"/>
	<path fill="#FFCC03" d="M77.4,70l8.4-70H8C3.6,0,0,3.6,0,8v54.1C0,66.5,3.6,70,8,70"/>
	<g>
		<path fill="#FFFFFF" d="M18.4,25.7l0.6-0.3l12.4-6.5c-0.2-0.8-1-1.5-1.9-1.4l-11.4,0.9c-1,0.1-1.7,0.9-1.6,1.9l0.2,1.6
			c0.1,1-0.6,1.8-1.5,1.9l-1.6,0.1l2.5,25.3l2.2-22.8L18.4,25.7z"/>
		<g>
			<path fill="#FFFFFF" d="M31.1,32.4h-3v3.6h3c1.2,0,2-0.7,2-1.8C33.1,33.1,32.2,32.4,31.1,32.4z"/>
			<path fill="#FFFFFF" d="M45.5,12.9L19.6,26.4l-2.8,28.7l25.8-2l14.5-1.1l9.3-0.7l2.8-28.7L45.5,12.9z M33.4,43.4l-2.9-4.8H28v4.8
				h-2.9V29.9h6.3c2.8,0,4.5,1.8,4.5,4.4c0,2.4-1.2,3.7-2.7,4l3.3,5.1H33.4z M48.1,32.4h-6.7v2.9h6v2.5h-6v3.1h6.7v2.5h-9.6V29.9
				h9.6V32.4z M62.6,41.1c-1.4,1.5-3.3,2.6-5.8,2.6c-4,0-7.2-2.8-7.2-7c0-4.3,3.2-7,7.2-7c2.8,0,4.6,1.4,5.6,3L60.1,34
				c-0.6-1-1.8-1.8-3.2-1.8c-2.5,0-4.2,1.9-4.2,4.4c0,2.6,1.8,4.4,4.2,4.4c1.2,0,2.3-0.5,2.9-1v-1.4h-3.6v-2.5h6.4V41.1z"/>
		</g>
	</g>
	<g>
		<path fill="#FFFFFF" d="M102,42V30.6h-6.6V42h-3V28H105v14H102z"/>
		<path fill="#FFFFFF" d="M117.4,42l-0.9-2.4h-6l-0.9,2.4h-3.4l5.4-14h3.7l5.4,14H117.4z M113.5,31l-2.2,6h4.4L113.5,31z"/>
		<path fill="#FFFFFF" d="M122.1,42V28h6.6c3,0,4.7,2.1,4.7,4.5c0,2.4-1.7,4.5-4.7,4.5h-3.6v5H122.1z M130.3,32.5
			c0-1.2-0.9-1.9-2.1-1.9h-3.2v3.8h3.2C129.4,34.4,130.3,33.7,130.3,32.5z"/>
		<path fill="#FFFFFF" d="M138.4,42V30.6h-4.1V28h11.2v2.6h-4.1V42H138.4z"/>
		<path fill="#FFFFFF" d="M157,42v-5.9h-6.6V42h-3V28h3v5.5h6.6V28h3v14H157z"/>
		<path fill="#FFFFFF" d="M162.8,42V28h9.9v2.6h-6.9v3h6.8v2.6h-6.8v3.2h6.9V42H162.8z M165.5,27.1c-0.8,0-1.4-0.6-1.4-1.4
			c0-0.8,0.6-1.4,1.4-1.4c0.8,0,1.4,0.6,1.4,1.4C166.9,26.5,166.3,27.1,165.5,27.1z M169.9,27.1c-0.8,0-1.4-0.6-1.4-1.4
			c0-0.8,0.7-1.4,1.4-1.4s1.4,0.6,1.4,1.4C171.4,26.5,170.7,27.1,169.9,27.1z"/>
		<path fill="#FFFFFF" d="M175,42V28h6.6c3,0,4.7,2.1,4.7,4.5c0,2.4-1.7,4.5-4.7,4.5H178v5H175z M183.2,32.5c0-1.2-0.9-1.9-2.1-1.9
			H178v3.8h3.2C182.3,34.4,183.2,33.7,183.2,32.5z"/>
	</g>
	<path opacity="0.1" d="M6.6,0.1L76.5,70h0.9l8.4-70H8C7.5,0,7.1,0,6.6,0.1z"/>
	<polygon opacity="0.1" points="77.9,66 85,66 85,4 	"/>
</g>
<g>
</g>
<g>
</g>
<g>
</g>
<g>
</g>
<g>
</g>
<g>
</g>
<g>
</g>
<g>
</g>
<g>
</g>
<g>
</g>
<g>
</g>
<g>
</g>
<g>
</g>
<g>
</g>
<g>
</g>
</svg>
